<?xml version="1.0" encoding="UTF-8" standalone="no"?>
<svg width="1826px" height="1761px" viewBox="0 0 1826 1761" version="1.1" xmlns="http://www.w3.org/2000/svg" xmlns:xlink="http://www.w3.org/1999/xlink" xmlns:sketch="http://www.bohemiancoding.com/sketch/ns">
    <!-- Generator: Sketch 3.3.2 (12043) - http://www.bohemiancoding.com/sketch -->
    <title>Yourselfr Eps Vector</title>
    <desc>Created with Sketch.</desc>
    <defs>
        <path d="M1825.432,2.372 C1777.758,117.953 1724.934,267.102 1666.96,449.823 C1608.986,632.544 1569.12,792.587 1547.363,929.958 C1524.486,918.475 1505.762,910.27 1491.191,905.342 C1535.291,673.266 1567.56,492.699 1588.002,363.635 C1604.295,260.767 1615.781,139.783 1622.462,0.68 C1725.409,3.886 1793.065,4.45 1825.432,2.372 L1825.432,2.372 Z M1378.999,1189.67 C1363.227,1183.897 1352.503,1169.427 1346.828,1146.26 C1341.153,1123.092 1339.378,1104.8 1341.503,1091.383 C1345.551,1065.825 1366.525,1045.078 1404.424,1029.139 C1442.324,1013.201 1475.923,1007.552 1505.223,1012.193 C1606.798,1028.281 1649.084,1089.994 1632.083,1197.334 C1626.517,1232.476 1609.582,1258.284 1581.275,1274.759 C1552.969,1291.235 1521.236,1296.688 1486.075,1291.119 C1463.286,1287.509 1445.664,1271.292 1433.21,1242.466 C1420.755,1213.64 1416.805,1184.852 1421.359,1156.1 C1424.091,1138.848 1430.55,1125.462 1440.735,1115.941 C1450.92,1106.42 1462.849,1102.742 1476.522,1104.908 C1517.543,1111.405 1533.803,1141.488 1525.302,1195.159 C1519.297,1190.933 1511.906,1183.867 1503.129,1173.963 C1494.352,1164.058 1485.406,1158.384 1476.291,1156.94 C1469.78,1155.909 1463.276,1157.99 1456.78,1163.183 C1450.284,1168.377 1446.429,1174.807 1445.215,1182.474 C1441.774,1204.198 1458.936,1218.05 1496.701,1224.031 C1544.233,1231.56 1571.49,1213.281 1578.472,1169.195 C1582.52,1143.637 1573.104,1117.749 1550.225,1091.529 C1527.346,1065.31 1500.931,1049.828 1470.98,1045.084 C1450.144,1041.784 1429.766,1050.346 1409.845,1070.769 C1389.924,1091.192 1377.838,1114.821 1373.588,1141.656 C1370.754,1159.546 1372.558,1175.551 1378.999,1189.67 L1378.999,1189.67 Z M554.127,451.774 C558.321,434.286 565.79,418.728 576.535,405.098 C587.28,391.468 599.597,380.024 613.487,370.766 C627.377,361.508 641.922,354.565 657.122,349.936 C672.322,345.307 686.736,342.992 700.364,342.992 C716.612,342.992 730.24,346.464 741.247,353.407 C752.254,360.351 757.757,371.281 757.757,386.196 C757.757,390.825 756.971,396.226 755.399,402.398 C752.254,415.771 748.323,434.029 743.606,457.174 C738.888,480.319 733.778,506.55 728.274,535.867 C722.771,565.184 717.136,596.172 711.371,628.833 C705.605,661.493 700.102,694.024 694.86,726.427 C681.756,802.549 668.391,884.327 654.763,971.764 C670.488,963.021 687.522,952.22 705.867,939.361 C724.212,926.503 744.654,909.273 767.192,887.671 C789.73,866.069 814.889,838.938 842.669,806.278 C870.449,773.617 867.215,910.379 901.808,861.517 L883.387,867.543 C873.952,883.487 916.747,879.441 901.808,896.157 C886.87,912.873 905.959,937.69 887.876,954.406 C869.793,971.121 850.924,987.323 831.269,1003.01 C811.613,1018.697 792.351,1033.484 773.482,1047.371 C728.929,1080.289 680.971,1112.177 629.604,1143.037 C619.645,1198.071 607.852,1251.69 594.224,1303.895 C580.597,1356.1 564.479,1404.961 545.872,1450.479 C527.265,1495.998 506.037,1537.787 482.189,1575.848 C458.34,1613.909 431.347,1646.569 401.208,1673.829 C371.07,1701.088 337.394,1722.304 300.18,1737.477 C262.965,1752.65 221.82,1760.236 176.744,1760.236 C158.923,1760.236 139.661,1758.436 118.957,1754.836 C98.253,1751.236 79.122,1744.035 61.563,1733.234 C44.004,1722.433 29.459,1707.003 17.928,1686.944 C6.397,1666.885 0.631,1640.14 0.631,1606.708 C0.631,1583.563 6.659,1557.461 18.714,1528.401 C30.77,1499.341 47.28,1468.738 68.246,1436.593 C89.212,1404.447 114.108,1371.015 142.936,1336.298 C171.764,1301.58 203.082,1266.991 236.889,1232.531 C270.697,1198.07 306.076,1164.125 343.028,1130.693 C379.981,1097.261 417.326,1065.373 455.064,1035.027 L476.292,963.278 C447.988,987.966 418.505,1007.896 387.843,1023.069 C357.18,1038.242 327.435,1045.828 298.607,1045.828 C273.448,1045.828 248.945,1040.813 225.096,1030.784 C201.247,1020.754 180.151,1006.353 161.806,987.58 C143.46,968.807 128.784,945.919 117.777,918.917 C106.77,891.914 101.267,861.44 101.267,827.494 C101.267,782.747 103.494,741.601 107.95,704.054 C112.405,666.508 118.826,630.762 127.212,596.816 C135.598,562.87 146.081,530.081 158.661,498.449 C171.24,466.818 185.654,434.801 201.903,402.398 C213.958,379.253 231.255,361.637 253.793,349.55 C276.331,337.463 298.345,331.42 319.835,331.42 C338.18,331.42 353.904,335.92 367.008,344.921 C380.112,353.922 386.663,367.937 386.663,386.968 C386.663,392.625 386.008,398.797 384.698,405.484 C383.387,412.17 381.16,419.371 378.015,427.086 C368.58,450.745 359.277,478.647 350.104,510.793 C340.932,542.939 332.808,575.856 325.732,609.545 C318.656,643.234 313.021,676.28 308.828,708.683 C304.635,741.086 302.538,769.631 302.538,794.319 C302.538,807.178 303.456,819.65 305.29,831.737 C307.125,843.824 310.4,854.625 315.118,864.14 C319.835,873.655 326.125,881.37 333.987,887.285 C341.849,893.2 351.808,896.157 363.863,896.157 C383.257,896.157 400.815,887.928 416.54,871.469 C432.264,855.011 445.892,835.209 457.423,812.064 C468.954,788.919 478.258,765.003 485.334,740.315 C492.409,715.626 496.996,695.053 499.092,678.594 L554.127,451.774 L554.127,451.774 Z M186.178,1612.109 C208.192,1612.109 229.027,1605.808 248.682,1593.207 C268.338,1580.606 286.421,1564.019 302.931,1543.445 C319.442,1522.872 334.511,1499.47 348.139,1473.239 C361.767,1447.008 373.822,1420.134 384.305,1392.617 C394.788,1365.1 403.698,1338.227 411.036,1311.995 C418.374,1285.764 424.14,1262.362 428.333,1241.789 C407.891,1255.162 387.057,1271.106 365.829,1289.622 C344.601,1308.138 323.897,1328.068 303.718,1349.413 C283.538,1370.758 264.407,1392.746 246.324,1415.376 C228.241,1438.007 212.385,1459.737 198.758,1480.568 C185.13,1501.399 174.385,1520.814 166.523,1538.816 C158.661,1556.818 154.73,1571.733 154.73,1583.563 C154.73,1602.594 165.212,1612.109 186.178,1612.109 L186.178,1612.109 Z" id="path-1"></path>
        <path d="M383.591,119.74 C394.516,141.591 402.71,164.665 408.172,188.965 C413.635,213.264 416.366,236.527 416.366,258.755 C416.366,280.982 413.917,303.397 409.02,326.002 C404.123,348.606 397.059,370.456 387.829,391.553 C378.599,412.65 367.297,432.429 353.923,450.889 C340.549,469.349 325.291,485.36 308.15,498.922 C291.008,512.485 272.266,523.221 251.922,531.133 C231.579,539.044 209.917,543 186.936,543 C153.783,543 125.434,535.748 101.888,521.244 C78.342,506.739 59.035,487.809 43.965,464.451 C28.896,441.094 17.877,414.722 10.907,385.337 C3.938,355.952 0.453,326.19 0.453,296.051 C0.453,254.61 6.669,215.901 19.101,179.923 C31.533,143.945 49.334,112.677 72.503,86.117 C95.672,59.557 124.021,38.648 157.551,23.391 C191.08,8.133 228.753,0.504 270.571,0.504 C306.36,0.504 339.889,6.061 371.158,17.174 C402.427,28.288 431.718,43.169 459.031,61.817 C486.345,80.466 511.774,101.845 535.32,125.956 C558.866,150.067 580.81,174.931 601.154,200.549 L590.417,280.229 C580.245,266.666 566.495,251.974 549.165,236.151 C531.835,220.328 513.469,204.882 494.068,189.812 C474.666,174.743 455.547,160.521 436.71,147.147 C417.873,133.773 401.674,122.566 388.111,113.524 L383.591,119.74 L383.591,119.74 Z M208.975,434.501 C221.784,434.501 234.216,428.002 246.271,415.005 C258.327,402.008 268.875,385.62 277.917,365.841 C286.958,346.063 294.211,324.212 299.673,300.29 C305.136,276.367 307.867,253.481 307.867,231.63 C307.867,214.3 306.549,198.195 303.911,183.314 C301.274,168.433 297.319,155.53 292.044,144.604 C286.77,133.679 279.989,125.014 271.701,118.61 C263.413,112.205 253.429,109.003 241.75,109.003 C226.304,109.003 211.612,115.596 197.673,128.782 C183.733,141.967 171.49,158.826 160.941,179.358 C150.393,199.89 142.104,222.588 136.077,247.453 C130.049,272.317 127.035,296.24 127.035,319.22 C127.035,335.043 128.542,349.924 131.556,363.863 C134.57,377.802 139.279,389.952 145.683,400.312 C152.088,410.672 160.564,418.961 171.113,425.177 C181.662,431.393 194.282,434.501 208.975,434.501 L208.975,434.501 Z" id="path-3"></path>
    </defs>
    <g id="Page-1" stroke="none" stroke-width="1" fill="none" fill-rule="evenodd" sketch:type="MSPage">
        <g id="Yourselfr-Eps-Vector" sketch:type="MSLayerGroup">
            <g id="Group-3">
                <mask id="mask-2" sketch:name="Clip 2" fill="white">
                    <use xlink:href="#path-1"></use>
                </mask>
                <g id="Clip-2"></g>
                <path d="M0.62,0.6 L1825.46,0.6 L1825.46,1760.28 L0.62,1760.28 L0.62,0.6 Z" id="Fill-1" fill="#008DC3" sketch:type="MSShapeGroup" mask="url(#mask-2)"></path>
            </g>
            <g id="Group-6" transform="translate(788.000000, 584.000000)">
                <mask id="mask-4" sketch:name="Clip 5" fill="white">
                    <use xlink:href="#path-3"></use>
                </mask>
                <g id="Clip-5"></g>
                <path d="M0.42,0.4 L601.26,0.4 L601.26,543.04 L0.42,543.04 L0.42,0.4 Z" id="Fill-4" fill="#008DC3" sketch:type="MSShapeGroup" mask="url(#mask-4)"></path>
            </g>
        </g>
    </g>
</svg>