<?xml version="1.0" encoding="UTF-8" standalone="no"?>
<svg width="110px" height="110px" viewBox="0 0 110 110" version="1.1" xmlns="http://www.w3.org/2000/svg" xmlns:xlink="http://www.w3.org/1999/xlink" xmlns:sketch="http://www.bohemiancoding.com/sketch/ns">
    <!-- Generator: Sketch 3.4.4 (17249) - http://www.bohemiancoding.com/sketch -->
    <title>Shape Copy + f</title>
    <desc>Created with Sketch.</desc>
    <defs></defs>
    <g id="Page-1" stroke="none" stroke-width="1" fill="none" fill-rule="evenodd" sketch:type="MSPage">
        <g id="vk" sketch:type="MSLayerGroup" transform="translate(-270.000000, -2.000000)">
            <g id="Page-1" sketch:type="MSShapeGroup">
                <g id="vk">
                    <g id="Shape-Copy-+-f" transform="translate(270.000000, 2.000000)">
                        <path d="M55,110 C85.3756612,110 110,85.3756612 110,55 C110,24.6243388 85.3756612,0 55,0 C24.6243388,0 0,24.6243388 0,55 C0,85.3756612 24.6243388,110 55,110 L55,110 Z" id="Shape-Copy" fill="#3C5A99"></path>
                        <path d="M59.1874129,58.8226449 L69.4455678,58.8226449 L70.9815809,46.9121122 L59.1874129,46.9121122 L59.1874129,39.3079896 C59.1874129,35.8596156 60.1449713,33.5096624 65.0898558,33.5096624 L71.3968189,33.5069064 L71.3968189,22.8540304 C70.3060536,22.7088809 66.5621746,22.384591 62.2064627,22.384591 C53.113179,22.384591 46.8876711,27.935184 46.8876711,38.1284197 L46.8876711,46.9121122 L36.6031811,46.9121122 L36.6031811,58.8226449 L46.8876711,58.8226449 L46.8876711,89.384591 L59.1874129,89.384591 L59.1874129,58.8226449 Z" id="f" fill="#FFFFFF"></path>
                    </g>
                </g>
            </g>
        </g>
    </g>
</svg>