<?xml version="1.0" encoding="UTF-8" standalone="no"?>
<svg width="28px" height="24px" viewBox="0 0 28 24" version="1.1" xmlns="http://www.w3.org/2000/svg" xmlns:xlink="http://www.w3.org/1999/xlink" xmlns:sketch="http://www.bohemiancoding.com/sketch/ns">
    <!-- Generator: Sketch 3.3.2 (12043) - http://www.bohemiancoding.com/sketch -->
    <title>Shape</title>
    <desc>Created with Sketch.</desc>
    <defs></defs>
    <g id="Page-1" stroke="none" stroke-width="1" fill="none" fill-rule="evenodd" sketch:type="MSPage">
        <g id="twitter" sketch:type="MSLayerGroup" transform="translate(-1.000000, 0.000000)" fill="#FFFFFF">
            <path d="M25.901,6.144 C25.912,6.39 25.918,6.638 25.918,6.886 C25.918,14.437 20.172,23.141 9.659,23.141 C6.432,23.141 3.428,22.198 0.9,20.576 C1.347,20.629 1.802,20.656 2.263,20.656 C4.941,20.656 7.404,19.742 9.36,18.21 C6.86,18.164 4.749,16.512 4.022,14.241 C4.37,14.307 4.729,14.344 5.096,14.344 C5.617,14.344 6.123,14.276 6.602,14.145 C3.988,13.621 2.019,11.312 2.019,8.542 C2.019,8.518 2.019,8.493 2.02,8.47 C2.79,8.897 3.671,9.155 4.607,9.184 C3.075,8.161 2.066,6.411 2.066,4.429 C2.066,3.381 2.347,2.399 2.839,1.555 C5.656,5.013 9.868,7.287 14.616,7.527 C14.518,7.108 14.469,6.673 14.469,6.224 C14.469,3.069 17.027,0.51 20.182,0.51 C21.826,0.51 23.309,1.204 24.353,2.314 C25.656,2.058 26.876,1.584 27.983,0.927 C27.553,2.262 26.65,3.381 25.467,4.089 C26.624,3.951 27.728,3.645 28.749,3.19 C27.987,4.334 27.018,5.341 25.901,6.144 L25.901,6.144 Z" id="Shape" sketch:type="MSShapeGroup"></path>
        </g>
    </g>
</svg>