<?xml version="1.0" encoding="UTF-8" standalone="no"?>
<svg width="110px" height="110px" viewBox="0 0 110 110" version="1.1" xmlns="http://www.w3.org/2000/svg" xmlns:xlink="http://www.w3.org/1999/xlink" xmlns:sketch="http://www.bohemiancoding.com/sketch/ns">
    <!-- Generator: Sketch 3.4.4 (17249) - http://www.bohemiancoding.com/sketch -->
    <title>vk</title>
    <desc>Created with Sketch.</desc>
    <defs></defs>
    <g id="Page-1" stroke="none" stroke-width="1" fill="none" fill-rule="evenodd" sketch:type="MSPage">
        <g id="vk" sketch:type="MSLayerGroup">
            <g id="Page-1" sketch:type="MSShapeGroup">
                <g id="vk">
                    <path d="M55,110 C85.3756612,110 110,85.3756612 110,55 C110,24.6243388 85.3756612,0 55,0 C24.6243388,0 0,24.6243388 0,55 C0,85.3756612 24.6243388,110 55,110 L55,110 Z" id="Shape" fill="#4C75A3"></path>
                    <path d="M56.6086693,74.8448318 C56.6086693,74.8448318 57.7793409,74.7157975 58.3779226,74.0717683 C58.9280881,73.4798095 58.9105029,72.3689732 58.9105029,72.3689732 C58.9105029,72.3689732 58.834681,67.1674094 61.2484204,66.4014256 C63.6288164,65.6464041 66.684758,71.4285078 69.9236314,73.6520074 C72.3729979,75.3340199 74.2342881,74.9658727 74.2342881,74.9658727 L82.895568,74.8448318 C82.895568,74.8448318 87.4261539,74.5652957 85.277791,71.0030374 C85.1019391,70.7120824 84.0262732,68.3679986 78.837727,63.5519388 C73.4064136,58.5111538 74.1344864,59.3266958 80.6764076,50.6074077 C84.6604822,45.2973637 86.2529701,42.0557498 85.7553319,40.6674329 C85.2812167,39.3446607 82.3506553,39.6940809 82.3506553,39.6940809 L72.5988649,39.754373 C72.5988649,39.754373 71.8753597,39.6559416 71.3395822,39.9765859 C70.815452,40.2901505 70.4790495,41.0227909 70.4790495,41.0227909 C70.4790495,41.0227909 68.934978,45.1315604 66.8772817,48.6264468 C62.5348802,55.9998965 60.798285,56.3901965 60.0884826,55.9316112 C58.4370728,54.8643953 58.849754,51.6451626 58.849754,49.3574885 C58.849754,42.2115044 59.9336415,39.2320698 56.7390738,38.4608334 C55.679166,38.2050487 54.8983377,38.0358198 52.1872486,38.0081859 C48.7074353,37.9727871 45.7629427,38.0189197 44.095318,38.835832 C42.985852,39.379146 42.1298869,40.5895556 42.6515049,40.6592112 C43.2962193,40.7450818 44.7555622,41.0531653 45.5293108,42.1059932 C46.5289264,43.4659912 46.4939844,46.5189639 46.4939844,46.5189639 C46.4939844,46.5189639 47.068358,54.9308537 45.1529419,55.97546 C43.8386198,56.6921138 42.0353379,55.2291169 38.1638543,48.5394343 C36.1806096,45.1128333 34.6826707,41.3247081 34.6826707,41.3247081 C34.6826707,41.3247081 34.3942278,40.6169611 33.8790044,40.23808 C33.254159,39.7790379 32.3810655,39.6335604 32.3810655,39.6335604 L23.1138957,39.6940809 C23.1138957,39.6940809 21.7230666,39.7329053 21.211954,40.3378817 C20.7572511,40.8763998 21.1756417,41.9888347 21.1756417,41.9888347 C21.1756417,41.9888347 28.4303343,58.9624311 36.6455896,67.5161443 C44.1791332,75.3595984 52.7321613,74.8448318 52.7321613,74.8448318 L56.6086693,74.8448318 Z" id="Fill-4" fill="#FFFFFF"></path>
                </g>
            </g>
        </g>
    </g>
</svg>