<?xml version="1.0" encoding="UTF-8" standalone="no"?>
<svg width="415px" height="415px" viewBox="0 0 415 415" version="1.1" xmlns="http://www.w3.org/2000/svg" xmlns:xlink="http://www.w3.org/1999/xlink" xmlns:sketch="http://www.bohemiancoding.com/sketch/ns">
    <!-- Generator: Sketch 3.5.1 (25234) - http://www.bohemiancoding.com/sketch -->
    <title>Group 3</title>
    <desc>Created with Sketch.</desc>
    <defs>
        <path id="path-1" d="M0,0.041 L414.959,0.041 L414.959,414.94 L0,414.94"></path>
    </defs>
    <g id="Page-1" stroke="none" stroke-width="1" fill="none" fill-rule="evenodd" sketch:type="MSPage">
        <g id="Mezhdunarodny_logotip_VK" sketch:type="MSLayerGroup">
            <g id="Group-3">
                <mask id="mask-2" sketch:name="Clip 2" fill="white">
                    <use xlink:href="#path-1"></use>
                </mask>
                <g id="Clip-2"></g>
                <path d="M63.942,0.041 L351.017,0.041 C386.33,0.041 414.959,28.669 414.959,63.983 L414.959,351.058 C414.959,386.371 386.33,415 351.017,415 L63.942,415 C28.628,415 0,386.371 0,351.058 L0,63.983 C0,28.669 28.628,0.041 63.942,0.041" id="Fill-1" sketch:type="MSShapeGroup" mask="url(#mask-2)"></path>
            </g>
            <path d="M204.945079,287.331843 L221.919079,287.331843 C221.919079,287.331843 227.045079,286.766843 229.666079,283.946843 C232.075079,281.354843 231.998079,276.490843 231.998079,276.490843 C231.998079,276.490843 231.666079,253.714843 242.235079,250.360843 C252.658079,247.054843 266.039079,272.372843 280.221079,282.108843 C290.946079,289.473843 299.096079,287.861843 299.096079,287.861843 L337.021079,287.331843 C337.021079,287.331843 356.859079,286.107843 347.452079,270.509843 C346.682079,269.235843 341.972079,258.971843 319.253079,237.883843 C295.471079,215.811843 298.659079,219.382843 327.304079,181.203843 C344.749079,157.952843 351.722079,143.758843 349.543079,137.679843 C347.467079,131.887843 334.635079,133.417843 334.635079,133.417843 L291.935079,133.681843 C291.935079,133.681843 288.767079,133.250843 286.421079,134.654843 C284.126079,136.027843 282.653079,139.235843 282.653079,139.235843 C282.653079,139.235843 275.892079,157.226843 266.882079,172.529843 C247.868079,204.815843 240.264079,206.524843 237.156079,204.516843 C229.925079,199.843843 231.732079,185.747843 231.732079,175.730843 C231.732079,144.440843 236.478079,131.394843 222.490079,128.017843 C217.849079,126.897843 214.430079,126.156843 202.559079,126.035843 C187.322079,125.880843 174.429079,126.082843 167.127079,129.659843 C162.269079,132.038843 158.521079,137.338843 160.805079,137.643843 C163.628079,138.019843 170.018079,139.368843 173.406079,143.978843 C177.783079,149.933843 177.630079,163.301843 177.630079,163.301843 C177.630079,163.301843 180.145079,200.134843 171.758079,204.708843 C166.003079,207.846843 158.107079,201.440843 141.155079,172.148843 C132.471079,157.144843 125.912079,140.557843 125.912079,140.557843 C125.912079,140.557843 124.649079,137.458843 122.393079,135.799843 C119.657079,133.789843 115.834079,133.152843 115.834079,133.152843 L75.2560794,133.417843 C75.2560794,133.417843 69.1660794,133.587843 66.9280794,136.236843 C64.9370794,138.594843 66.7690794,143.465843 66.7690794,143.465843 C66.7690794,143.465843 98.5350794,217.787843 134.507079,255.241843 C167.494079,289.585843 204.945079,287.331843 204.945079,287.331843" id="Fill-4" fill="#FFFFFF" sketch:type="MSShapeGroup"></path>
        </g>
    </g>
</svg>