<svg xmlns="http://www.w3.org/2000/svg" xmlns:xlink="http://www.w3.org/1999/xlink" version="1.1" x="0px" y="0px" viewBox="0 0 100 100" enable-background="new 0 0 100 100" xml:space="preserve"><path d="M90.283,26.914h-16.75l-7.11-12.35c-1.665-2.89-4.834-4.685-8.271-4.685h-16.05c-3.435,0-6.602,1.793-8.269,4.68  l-7.122,12.353H9.951C4.73,26.914,0.5,30.98,0.5,35.997v45.414c0,5.019,4.23,9.086,9.451,9.086h80.332  c5.221,0,9.451-4.067,9.451-9.086V35.997C99.734,30.98,95.501,26.914,90.283,26.914z M50.117,83.087  c-14.354,0-25.989-11.185-25.989-24.979c0-13.796,11.635-24.979,25.989-24.979c14.355,0,25.991,11.183,25.991,24.979  C76.108,71.902,64.473,83.087,50.117,83.087z"/><path d="M50.117,39.939c-10.422,0-18.902,8.148-18.902,18.168c0,10.016,8.48,18.166,18.902,18.166  c10.424,0,18.904-8.15,18.904-18.166C69.021,48.088,60.541,39.939,50.117,39.939z"/></svg>