<?xml version="1.0" encoding="UTF-8" standalone="no"?>
<svg width="914px" height="881px" viewBox="0 0 914 881" version="1.1" xmlns="http://www.w3.org/2000/svg" xmlns:xlink="http://www.w3.org/1999/xlink" xmlns:sketch="http://www.bohemiancoding.com/sketch/ns">
    <!-- Generator: Sketch 3.5.1 (25234) - http://www.bohemiancoding.com/sketch -->
    <title>Slice 2</title>
    <desc>Created with Sketch.</desc>
    <defs></defs>
    <g id="Page-1" stroke="none" stroke-width="1" fill="none" fill-rule="evenodd" sketch:type="MSPage">
        <g id="!-+-o" sketch:type="MSLayerGroup" fill="#148BC3">
            <path d="M913.21615,1.68588028 C889.379009,59.4766598 862.967238,134.051169 833.980044,225.411644 C804.992849,316.772119 785.060221,396.793735 774.181561,465.478892 C762.743024,459.737447 753.381153,455.634873 746.095668,453.171046 C768.145251,337.133212 784.28024,246.849599 794.501121,182.317498 C802.647466,130.883497 808.390645,70.3915759 811.730828,0.839921194 C863.204587,2.44296684 897.03269,2.72495038 913.21615,1.68588028 L913.21615,1.68588028 Z M689.999272,595.335086 C682.113266,592.448666 676.751597,585.2137 673.914104,573.62997 C671.076611,562.046241 670.189161,552.900122 671.251728,546.191339 C673.275665,533.412705 683.762338,523.038927 702.712062,515.069694 C721.661786,507.10046 738.461495,504.276067 753.111692,506.596431 C803.899043,514.640357 825.042135,545.496988 816.5416,599.167251 C813.758687,616.737872 805.290754,629.641843 791.137547,637.87955 C776.984339,646.117258 761.117855,648.843853 743.537618,646.059417 C732.14302,644.25469 723.332232,636.145962 717.104988,621.732989 C710.877745,607.320017 708.902617,592.925765 711.179546,578.549802 C712.545704,569.924224 715.77496,563.23124 720.867412,558.470647 C725.959865,553.710055 731.924381,551.871205 738.76114,552.954041 C759.271416,556.20255 767.401299,571.244144 763.151032,598.079275 C760.148424,595.966309 756.452976,592.433734 752.064577,587.481441 C747.676177,582.529149 743.203125,579.6921 738.645285,578.970209 C735.389686,578.454573 732.137963,579.495057 728.890018,582.091691 C725.642074,584.688326 723.71454,587.90339 723.107359,591.73698 C721.387013,602.598819 729.967949,609.52498 748.850426,612.51567 C772.616302,616.279815 786.244681,607.140453 789.735972,585.09731 C791.759908,572.318676 787.052181,559.374604 775.612649,546.264705 C764.173117,533.154806 750.96567,525.41401 735.989913,523.042083 C725.571994,521.392046 715.382917,525.672804 705.422376,535.884484 C695.461834,546.096164 689.419087,557.910609 687.293953,571.328175 C685.877198,580.273218 686.778962,588.275442 689.999272,595.335086 Z M277.563718,226.386882 C279.660305,217.64318 283.394795,209.863974 288.7673,203.04903 C294.139805,196.234087 300.298437,190.512191 307.243382,185.883173 C314.188327,181.254154 321.460755,177.782442 329.060884,175.467933 C336.661012,173.153424 343.867923,171.996187 350.681831,171.996187 C358.806106,171.996187 365.619913,173.732042 371.123454,177.203806 C376.626995,180.67557 379.378725,186.140302 379.378725,193.598165 C379.378725,195.912674 378.98562,198.612895 378.1994,201.698907 C376.62696,208.385267 374.661439,217.514583 372.302778,229.087129 C369.944118,240.659676 367.38894,253.775031 364.63717,268.43359 C361.885399,283.092149 359.068152,298.58627 356.185345,314.916419 C353.302537,331.246567 350.550808,347.51218 347.930074,363.713745 C341.378239,401.774564 334.695468,442.663614 327.881559,486.382122 C335.743761,482.010271 344.261019,476.60983 353.433588,470.180638 C362.606157,463.751446 372.826866,455.136457 384.096022,444.335414 C395.365178,433.534371 407.944513,419.968978 421.834403,403.63883 C435.724293,387.308681 434.107311,455.689565 451.404155,431.258634 L442.193452,434.271397 C437.476131,442.243596 458.873262,440.22071 451.40417,448.57866 C443.935079,456.93661 453.479653,469.344805 444.438121,477.702756 C435.396589,486.060706 425.962088,494.161367 416.134335,502.004981 C406.306583,509.848596 396.67553,517.242056 387.240887,524.185584 C364.964648,540.644316 340.985292,556.588474 315.302099,572.018536 C310.322704,599.535479 304.426141,626.34481 297.612233,652.447331 C290.798325,678.549852 282.739688,702.980416 273.436083,725.739757 C264.132477,748.499098 253.518664,769.39366 241.594324,788.424069 C229.669984,807.454479 216.173407,823.784383 201.104186,837.41427 C186.034966,851.044158 169.197002,861.652167 150.589791,869.238614 C131.98258,876.825061 111.410126,880.618227 88.8718141,880.618227 C79.9613185,880.618227 70.3302656,879.718154 59.9783663,877.91798 C49.626467,876.117806 40.0609314,872.517512 31.2814725,867.116991 C22.5020137,861.716469 15.2295859,854.001554 9.46397114,843.972014 C3.69835635,833.942474 0.815592204,820.569954 0.815592204,803.854054 C0.815592204,792.281508 3.82939109,779.230443 9.85707927,764.700468 C15.8847675,750.170493 24.1399557,734.869245 34.6228917,718.796264 C45.1058277,702.723283 57.5541274,686.007634 71.9681644,668.648814 C86.3822013,651.289995 102.040852,633.995727 118.944586,616.765491 C135.848321,599.535256 153.53801,582.562442 172.014184,565.846542 C190.490359,549.130642 209.162809,533.186484 228.032093,518.01359 L238.646013,482.138876 C224.494049,494.482925 209.752642,504.448024 194.421348,512.034471 C179.090054,519.620918 164.217612,523.414085 149.803575,523.414085 C137.224052,523.414085 124.972304,520.906737 113.047964,515.891967 C101.123625,510.877197 90.5753285,503.67661 81.4027596,494.289989 C72.2301906,484.903368 64.8922455,473.459577 59.3887041,459.958273 C53.8851627,446.456969 51.1334333,431.220012 51.1334333,414.246944 C51.1334333,391.873355 52.2472285,371.300248 54.4748524,352.527006 C56.7024763,333.753764 59.9128273,315.880877 64.1060017,298.90781 C68.2991761,281.934742 73.5405654,265.540547 79.830327,249.724734 C86.1200886,233.908921 93.326999,217.900472 101.451274,201.698907 C107.478963,190.126361 116.127255,181.318499 127.396411,175.275058 C138.665567,169.231617 149.672485,166.209942 160.417494,166.209942 C169.590063,166.209942 177.452147,168.460126 184.003982,172.960561 C190.555817,177.460995 193.831686,184.46871 193.831686,193.983915 C193.831686,196.812759 193.504099,199.898725 192.848915,203.241905 C192.193732,206.585085 191.079937,210.185379 189.507496,214.042894 C184.790175,225.872608 180.138442,239.823747 175.552158,255.896728 C170.965873,271.969709 166.903796,288.428194 163.365805,305.272678 C159.827814,322.117162 157.010568,338.639939 154.913981,354.841504 C152.817393,371.043068 151.769115,385.315661 151.769115,397.659711 C151.769115,404.088903 152.227737,410.325126 153.144994,416.368567 C154.062251,422.412008 155.700185,427.812448 158.058846,432.570051 C160.417506,437.327653 163.56234,441.185111 167.493441,444.142539 C171.424542,447.099968 176.403862,448.57866 182.43155,448.57866 C192.128266,448.57866 200.907593,444.464038 208.769795,436.234672 C216.631997,428.005306 223.445803,418.104498 229.211418,406.531952 C234.977033,394.959406 239.628766,383.001287 243.166756,370.657238 C246.704747,358.313188 248.997855,348.026635 250.046149,339.797269 L277.563718,226.386882 Z M93.5891117,806.554301 C104.596194,806.554301 115.013456,803.404044 124.841208,797.103436 C134.668961,790.802827 143.710357,782.509294 151.96567,772.222586 C160.220982,761.935878 167.755479,750.234923 174.569387,737.119371 C181.383296,724.003818 187.410893,710.567008 192.652361,696.808536 C197.893829,683.050065 202.34901,669.613254 206.018038,656.497702 C209.687065,643.382149 212.56983,631.681194 214.666417,621.394487 C204.445554,628.080847 194.028293,636.052926 183.41432,645.310963 C172.800348,654.569 162.448604,664.534098 152.358778,675.206558 C142.268952,685.879017 132.703416,696.872771 123.661884,708.18815 C114.620352,719.503528 106.69275,730.368701 99.8788418,740.783992 C93.0649334,751.199284 87.6925093,760.907219 83.7614084,769.908088 C79.8303074,778.908957 77.8647864,786.366709 77.8647864,792.281566 C77.8647864,801.79677 83.1061757,806.554301 93.5891117,806.554301 L93.5891117,806.554301 Z" id="!" sketch:type="MSShapeGroup"></path>
            <path d="M586.295278,352.370051 C591.757938,363.295372 595.854872,374.832715 598.586203,386.982426 C601.317533,399.132136 602.683178,410.763662 602.683178,421.87735 C602.683178,432.991039 601.458807,444.198744 599.010028,455.5008 C596.561249,466.802857 593.029409,477.728014 588.414403,488.2766 C583.799396,498.825186 578.148453,508.714337 571.461403,517.94435 C564.774353,527.174363 557.145579,535.179866 548.574853,541.9611 C540.004127,548.742334 530.632979,554.11073 520.461128,558.06645 C510.289277,562.02217 499.458302,564 487.967878,564 C471.391529,564 457.217079,560.373978 445.444103,553.121825 C433.671128,545.869672 424.017433,536.404342 416.482728,524.72555 C408.948024,513.046758 403.438354,499.861224 399.953553,485.16855 C396.468753,470.475877 394.726378,455.595059 394.726378,440.52565 C394.726378,419.805213 397.834397,400.450732 404.050528,382.461626 C410.266659,364.472519 419.166895,348.838242 430.751503,335.558326 C442.336111,322.278409 456.510561,311.824164 473.275278,304.195276 C490.039995,296.566388 508.876473,292.752001 529.785278,292.752001 C547.680201,292.752001 564.444666,295.530381 580.079178,301.087226 C595.713689,306.64407 610.359051,314.084479 624.015703,323.408676 C637.672354,332.732872 650.386977,343.422574 662.159953,355.478101 C673.932928,367.533628 684.905177,379.965703 695.077027,392.7747 L689.708578,432.61425 C684.622652,425.833016 677.747338,418.48679 669.082428,410.57535 C660.417518,402.663911 651.234734,394.940955 641.533803,387.406251 C631.832871,379.871546 622.273358,372.760776 612.854978,366.073726 C603.436597,359.386675 595.336912,353.782823 588.555678,349.262001 L586.295278,352.370051 Z M498.987328,509.7504 C505.391827,509.7504 511.607865,506.501108 517.635628,500.002425 C523.663391,493.503743 528.937605,485.309875 533.458428,475.420575 C537.979251,465.531276 541.605273,454.606118 544.336603,442.644775 C547.067933,430.683432 548.433578,419.240272 548.433578,408.31495 C548.433578,399.65004 547.774301,391.597446 546.455728,384.156926 C545.137155,376.716405 543.159324,370.264911 540.522178,364.802251 C537.885031,359.33959 534.494465,355.0072 530.350378,351.804951 C526.206291,348.602701 521.214624,347.001601 515.375228,347.001601 C507.652156,347.001601 500.30593,350.297984 493.336328,356.890851 C486.366727,363.483717 480.244871,371.913041 474.970578,382.179076 C469.696285,392.44511 465.55226,403.794088 462.538378,416.22635 C459.524496,428.658613 458.017578,440.619776 458.017578,452.1102 C458.017578,460.02164 458.771037,467.462049 460.277978,474.43165 C461.784919,481.401252 464.139479,487.476016 467.341728,492.656125 C470.543977,497.836234 474.782185,501.98026 480.056478,505.088325 C485.330771,508.196391 491.640991,509.7504 498.987328,509.7504 L498.987328,509.7504 Z" id="o" sketch:type="MSShapeGroup"></path>
        </g>
    </g>
</svg>