<?xml version="1.0" encoding="UTF-8" standalone="no"?>
<svg width="24px" height="22px" viewBox="0 0 24 22" version="1.1" xmlns="http://www.w3.org/2000/svg" xmlns:xlink="http://www.w3.org/1999/xlink" xmlns:sketch="http://www.bohemiancoding.com/sketch/ns">
    <!-- Generator: Sketch 3.5.1 (25234) - http://www.bohemiancoding.com/sketch -->
    <title>Shape</title>
    <desc>Created with Sketch.</desc>
    <defs></defs>
    <g id="Page-1" stroke="none" stroke-width="1" fill="none" fill-rule="evenodd" sketch:type="MSPage">
        <path d="M12,2 C17.514,2 22,5.592 22,10.007 C22,14.924 16.855,17.968 12.09,17.968 C10.153,17.968 8.707,17.571 7.696,17.324 C6.696,17.937 6.101,18.361 3.424,19.144 C3.959,17.771 4.147,16.396 4.026,14.879 C3.188,13.879 2.001,12.479 2.001,10.007 C2,5.592 6.486,2 12,2 L12,2 Z M12,0 C5.662,0 0,4.226 0,10.007 C0,12.057 0.738,14.07 2.047,15.632 C2.102,17.462 1.024,20.088 0.054,22 C2.656,21.53 6.355,20.492 8.032,19.464 C9.45,19.809 10.807,19.967 12.091,19.967 C19.175,19.967 24.001,15.13 24.001,10.006 C24,4.195 18.299,-1.77635684e-15 12,-1.77635684e-15 L12,0 Z M8.5,10 C8.5,10.829 7.829,11.5 7,11.5 C6.172,11.5 5.5,10.829 5.5,10 C5.5,9.171 6.172,8.5 7,8.5 C7.829,8.5 8.5,9.171 8.5,10 L8.5,10 Z M12,8.5 C11.172,8.5 10.5,9.171 10.5,10 C10.5,10.829 11.172,11.5 12,11.5 C12.829,11.5 13.5,10.829 13.5,10 C13.5,9.171 12.829,8.5 12,8.5 L12,8.5 Z M17,8.5 C16.172,8.5 15.5,9.171 15.5,10 C15.5,10.829 16.172,11.5 17,11.5 C17.829,11.5 18.5,10.829 18.5,10 C18.5,9.171 17.829,8.5 17,8.5 L17,8.5 Z" id="Shape" fill="#000000" sketch:type="MSShapeGroup"></path>
    </g>
</svg>