<?xml version="1.0" encoding="UTF-8" standalone="no"?>
<svg width="91px" height="87px" viewBox="0 0 91 87" version="1.1" xmlns="http://www.w3.org/2000/svg" xmlns:xlink="http://www.w3.org/1999/xlink" xmlns:sketch="http://www.bohemiancoding.com/sketch/ns">
    <!-- Generator: Sketch 3.5.1 (25234) - http://www.bohemiancoding.com/sketch -->
    <title>Shape</title>
    <desc>Created with Sketch.</desc>
    <defs></defs>
    <g id="Page-1" stroke="none" stroke-width="1" fill="none" fill-rule="evenodd" sketch:type="MSPage">
        <path d="M21.781,15.622 C21.781,15.622 18.725,15.357 16.792,16.02 C12.045,17.468 9.413,20.22 8.302,23.952 C6.457,30.145 7.787,36.215 12.163,41.053 C12.932,41.903 13.404,42.928 13.139,44.111 C12.877,45.286 12.103,45.655 11.341,46.131 C10.167,46.866 6.682,48.725 3.781,51.235 C1.119,53.538 0.231,55.564 0.269,58.798 C0.322,63.264 0.315,67.712 0.199,72.19 C0.105,75.819 1.674,76.753 4.804,76.755 C5.537,76.755 7.417,76.77 7.417,76.77 L7.394,73.18 L5.442,73.145 C4.161,73.115 3.773,72.351 3.824,70.922 L3.794,59.133 C3.671,55.987 5.447,54.063 8.009,52.3 C8.529,51.942 9.067,51.606 9.607,51.279 C10.959,50.463 12.355,49.822 13.612,48.956 C15.044,47.97 16.452,46.586 16.762,44.805 C17.144,42.612 16.133,40.06 14.94,38.589 C11.539,34.394 10.636,31.255 11.483,26.369 C12.232,22.083 15.415,18.91 21.784,19.244 C21.783,19.244 21.76,15.296 21.781,15.622 L21.781,15.622 L21.781,15.622 Z M68.607,15.622 C68.607,15.622 71.662,15.357 73.596,16.02 C78.343,17.468 80.975,20.22 82.086,23.952 C83.931,30.145 82.601,36.215 78.226,41.053 C77.457,41.903 76.984,42.928 77.249,44.111 C77.511,45.286 78.285,45.655 79.047,46.131 C80.222,46.866 83.706,48.725 86.607,51.235 C89.269,53.538 90.157,55.564 90.119,58.798 C90.066,63.264 90.073,67.712 90.189,72.19 C90.283,75.819 88.714,76.753 85.584,76.755 C84.851,76.755 82.971,76.77 82.971,76.77 L82.993,73.18 L84.945,73.145 C86.226,73.115 86.614,72.351 86.563,70.922 L86.592,59.13 C86.715,55.984 84.939,54.06 82.378,52.297 C81.858,51.939 81.32,51.603 80.78,51.276 C79.428,50.46 78.032,49.819 76.774,48.953 C75.342,47.967 73.934,46.583 73.624,44.802 C73.242,42.609 74.253,40.057 75.446,38.586 C78.847,34.391 79.75,31.252 78.903,26.366 C78.154,22.08 74.971,18.907 68.602,19.241 C68.605,19.244 68.628,15.296 68.607,15.622 L68.607,15.622 L68.607,15.622 Z M28.594,24.185 C28.393,16.942 27.738,9.877 33.533,5.247 C34.655,4.35 35.377,3.846 36.833,3.674 C38.162,3.516 39.411,3.949 40.657,4.368 C40.713,4.387 40.778,4.372 40.841,4.366 C41.458,4.301 42.267,3.704 42.785,3.413 C45.8,1.719 47.1,0.361 53.018,1.032 C56.131,1.386 58.294,3.362 60.156,5.521 C62.285,7.986 63.091,9.897 63.427,13.176 C63.625,15.117 63.558,17.034 63.388,19.356 C63.215,20.654 63.042,21.952 62.869,23.249 L62.606,24.678 C63.659,25.528 64.151,26.613 64.273,27.743 C64.542,30.228 63.025,32.932 61.778,33.84 C61.294,34.324 60.551,34.887 60.068,35.371 C58.762,39.09 57.722,41.759 55.53,44.727 C55.182,45.293 54.326,46.033 54.185,46.694 C54.061,47.277 54.369,47.609 54.78,47.888 C55.409,48.315 56.051,48.594 56.756,48.877 C60.083,50.218 63.239,50.942 66.376,52.302 C67.605,52.834 68.831,53.463 70.063,54.264 C70.468,54.526 70.88,54.788 71.288,55.075 C73.493,56.621 75.586,58.9 75.739,66.095 C75.739,66.095 75.735,70.268 75.733,73.399 C75.732,75.277 75.731,76.78 75.731,76.78 C75.712,80.982 70.583,83.581 64.203,85.087 C57.823,86.592 50.192,87.004 45.169,86.833 C40.93,86.976 34.836,86.705 29.201,85.713 C21.483,84.353 14.628,81.638 14.606,76.779 C14.606,76.778 14.598,66.094 14.598,66.094 C14.752,58.899 16.844,56.62 19.049,55.074 C19.458,54.787 19.869,54.526 20.274,54.263 C21.506,53.462 22.733,52.833 23.961,52.301 C27.099,50.942 30.254,50.218 33.581,48.876 C34.286,48.593 34.928,48.314 35.557,47.887 C35.968,47.609 36.277,47.276 36.152,46.693 C35.706,44.593 34.252,46.326 30.405,35.37 C29.922,34.886 29.179,34.323 28.695,33.839 C27.475,32.95 25.992,30.336 26.185,27.893 C26.299,26.479 26.977,25.118 28.594,24.185 L28.594,24.185 Z" id="Shape" fill="#000000" sketch:type="MSShapeGroup"></path>
    </g>
</svg>