<svg xmlns="http://www.w3.org/2000/svg" xmlns:xlink="http://www.w3.org/1999/xlink" version="1.1" x="0px" y="0px" viewBox="0 0 100 100" enable-background="new 0 0 100 100" xml:space="preserve"><g><path fill="#000000" d="M45.285,12.951c2.364-4.792,6.235-4.792,8.598,0l9.005,18.246c0.62,1.256,2.263,2.448,3.647,2.649   l20.136,2.925c5.289,0.769,6.482,4.449,2.657,8.179l-14.57,14.202c-1.003,0.978-1.629,2.908-1.392,4.288l3.439,20.054   c0.902,5.267-2.229,7.541-6.957,5.056l-18.011-9.47c-1.239-0.651-3.268-0.651-4.508,0l-18.009,9.468   c-4.729,2.487-7.861,0.213-6.957-5.054l3.87-22.564L9.84,44.951c-3.826-3.73-2.63-7.41,2.658-8.179l20.135-2.925   c1.386-0.202,3.027-1.394,3.647-2.649L45.285,12.951z"/></g></svg>