<?xml version="1.0" encoding="UTF-8" standalone="no"?>
<svg width="74px" height="75px" viewBox="0 0 74 75" version="1.1" xmlns="http://www.w3.org/2000/svg" xmlns:xlink="http://www.w3.org/1999/xlink" xmlns:sketch="http://www.bohemiancoding.com/sketch/ns">
    <!-- Generator: Sketch 3.3.2 (12043) - http://www.bohemiancoding.com/sketch -->
    <title>Slice 1</title>
    <desc>Created with Sketch.</desc>
    <defs></defs>
    <g id="Page-1" stroke="none" stroke-width="1" fill="none" fill-rule="evenodd" sketch:type="MSPage">
        <path d="M50.8,11.5368233 L51.9,8.63682326 C52.3,7.63682326 51.7,6.43682326 50.7,6.13682326 C49.7,5.73682326 48.5,6.23682326 48.1,7.33682326 L47,10.1368233 C34.1,6.63682326 20.4,13.4368233 15.7,26.0368233 L9.2,43.8368233 L-2.8,49.3368233 C-3.5,49.6368233 -4,50.4368233 -4,51.2368233 C-4,52.0368233 -3.5,52.7368233 -2.7,53.0368233 L19,60.8368233 C18.1,65.8368233 21,71.0368233 26.1,72.8368233 C31.1,74.6368233 36.7,72.5368233 39.3,68.1368233 L61,75.9368233 L61,75.9368233 C62,76.3368233 63.2,75.7368233 63.6,74.7368233 C63.8,74.1368233 63.7,73.5368233 63.4,73.0368233 L57.9,61.3368233 L64.4,43.5368233 C69.1,30.9368233 63,17.0368233 50.8,11.5368233 L50.8,11.5368233 Z M27.5,69.0368233 C24.5,67.9368233 22.7,65.1368233 22.9,62.1368233 L35.5,66.6368233 C33.7,69.1368233 30.4,70.1368233 27.5,69.0368233 L27.5,69.0368233 Z M60.7,42.2368233 L53.9,60.7368233 C53.7,61.2368233 53.7,61.7368233 54,62.2368233 L57.9,70.5368233 L39,63.8368233 L22.1,57.7368233 L3.2,50.9368233 L11.6,47.0368233 C12.1,46.8368233 12.4,46.4368233 12.6,45.9368233 L19.4,27.4368233 C23.5,16.2368233 36.2,10.4368233 47.5,14.5368233 C59,18.5368233 64.8,31.0368233 60.7,42.2368233 L60.7,42.2368233 Z" id="Shape" fill="#C6C6C6" sketch:type="MSShapeGroup" transform="translate(30.993127, 41.031058) rotate(-20.000000) translate(-30.993127, -41.031058) "></path>
    </g>
</svg>