<svg xmlns="http://www.w3.org/2000/svg" xmlns:xlink="http://www.w3.org/1999/xlink" version="1.1" x="0px" y="0px" viewBox="0 0 100 100" enable-background="new 0 0 100 100" xml:space="preserve"><g><path d="M80.203,54.072c-2.112-0.216-3.705-1.967-3.705-4.072c0-2.105,1.593-3.855,3.706-4.072   c0.561-0.058,1.071-0.349,1.406-0.803c0.334-0.454,0.462-1.028,0.351-1.581c-0.829-4.121-2.444-8.011-4.801-11.562   c-0.321-0.485-0.839-0.806-1.417-0.878c-0.579-0.072-1.159,0.11-1.59,0.501c-0.762,0.688-1.744,1.067-2.765,1.067   c-1.087,0-2.11-0.425-2.88-1.199c-1.537-1.543-1.599-4.036-0.141-5.674c0.386-0.433,0.563-1.012,0.489-1.587   s-0.395-1.089-0.878-1.41c-3.54-2.347-7.416-3.955-11.522-4.78c-0.556-0.112-1.129,0.017-1.582,0.353   c-0.454,0.336-0.745,0.848-0.802,1.41c-0.211,2.119-1.963,3.717-4.073,3.717c-2.111,0-3.862-1.598-4.073-3.717   c-0.056-0.562-0.347-1.074-0.801-1.41c-0.454-0.335-1.029-0.463-1.583-0.353c-4.118,0.828-8.005,2.443-11.552,4.801   c-0.481,0.32-0.801,0.833-0.875,1.406c-0.075,0.573,0.102,1.151,0.484,1.584c1.442,1.631,1.375,4.104-0.153,5.632   c-0.771,0.771-1.795,1.196-2.885,1.196c-1.009,0-1.983-0.369-2.742-1.039c-0.433-0.382-1.012-0.557-1.584-0.483   c-0.573,0.076-1.086,0.396-1.405,0.878c-2.351,3.546-3.962,7.431-4.79,11.546c-0.111,0.553,0.017,1.127,0.351,1.581   c0.334,0.454,0.845,0.746,1.406,0.803c2.113,0.216,3.706,1.967,3.706,4.072c0,2.105-1.593,3.855-3.706,4.072   c-0.562,0.057-1.072,0.349-1.407,0.803s-0.462,1.028-0.351,1.581c0.824,4.093,2.422,7.958,4.75,11.488   c0.32,0.485,0.837,0.808,1.414,0.882c0.58,0.075,1.158-0.106,1.591-0.495c0.766-0.687,1.751-1.065,2.776-1.065   c1.094,0,2.124,0.427,2.898,1.201c1.551,1.552,1.606,4.05,0.125,5.688c-0.39,0.432-0.573,1.012-0.501,1.589   c0.072,0.577,0.392,1.095,0.876,1.418c3.553,2.365,7.447,3.986,11.575,4.816c0.555,0.111,1.128-0.017,1.583-0.353   c0.454-0.336,0.745-0.848,0.801-1.41c0.211-2.119,1.962-3.717,4.073-3.717c2.11,0,3.862,1.598,4.073,3.717   c0.057,0.562,0.348,1.074,0.802,1.41c0.347,0.257,0.764,0.392,1.188,0.392c0.131,0,0.264-0.013,0.394-0.039   c4.114-0.827,7.998-2.44,11.545-4.796c0.486-0.323,0.807-0.842,0.879-1.421c0.071-0.579-0.114-1.161-0.507-1.592   c-1.487-1.633-1.436-4.127,0.116-5.68c0.771-0.771,1.798-1.196,2.889-1.196c1.031,0,2.021,0.383,2.785,1.077   c0.432,0.393,1.013,0.582,1.593,0.504c0.579-0.072,1.097-0.394,1.419-0.88c2.348-3.544,3.958-7.426,4.785-11.538   c0.111-0.553-0.017-1.127-0.351-1.581C81.275,54.421,80.765,54.129,80.203,54.072z M74.886,64.086   c-1.086-0.519-2.28-0.793-3.507-0.793c-2.159,0-4.189,0.841-5.717,2.368c-2.491,2.491-3.029,6.206-1.573,9.236   c-2.082,1.187-4.278,2.097-6.565,2.72c-1.193-3.03-4.122-5.119-7.523-5.119c-3.402,0-6.33,2.089-7.523,5.119   c-2.301-0.627-4.509-1.544-6.6-2.74c1.45-3.033,0.908-6.751-1.579-9.238c-1.53-1.53-3.563-2.373-5.727-2.373   c-1.215,0-2.401,0.271-3.481,0.78c-1.172-2.07-2.074-4.255-2.692-6.529c3.022-1.197,5.104-4.124,5.104-7.517   c0-3.392-2.083-6.318-5.104-7.517c0.625-2.3,1.541-4.509,2.733-6.6c1.066,0.496,2.235,0.758,3.43,0.758   c2.158,0,4.188-0.841,5.713-2.367c2.454-2.454,3.007-6.136,1.604-9.153c2.091-1.196,4.299-2.112,6.598-2.739   c1.194,3.031,4.122,5.12,7.523,5.12s6.33-2.089,7.523-5.12c2.286,0.623,4.482,1.532,6.562,2.718   c-1.418,3.025-0.872,6.726,1.589,9.196c1.526,1.532,3.556,2.376,5.714,2.376c1.216,0,2.402-0.271,3.482-0.785   c1.191,2.09,2.105,4.298,2.731,6.596c-3.022,1.198-5.104,4.124-5.104,7.517s2.082,6.319,5.104,7.517   C76.979,59.806,76.07,62.004,74.886,64.086z"/><path d="M50,38.813c-6.168,0-11.187,5.018-11.187,11.187c0,6.168,5.018,11.187,11.187,11.187c6.168,0,11.187-5.019,11.187-11.187   C61.187,43.832,56.168,38.813,50,38.813z M50,57.187c-3.963,0-7.187-3.224-7.187-7.187s3.224-7.187,7.187-7.187   s7.187,3.224,7.187,7.187S53.963,57.187,50,57.187z"/></g></svg>