<?xml version="1.0" encoding="UTF-8" standalone="no"?>
<svg width="110px" height="110px" viewBox="0 0 110 110" version="1.1" xmlns="http://www.w3.org/2000/svg" xmlns:xlink="http://www.w3.org/1999/xlink" xmlns:sketch="http://www.bohemiancoding.com/sketch/ns">
    <!-- Generator: Sketch 3.2.2 (9983) - http://www.bohemiancoding.com/sketch -->
    <title>vk</title>
    <desc>Created with Sketch.</desc>
    <defs></defs>
    <g id="Page-1" stroke="none" stroke-width="1" fill="none" fill-rule="evenodd" sketch:type="MSPage">
        <g id="vk" sketch:type="MSLayerGroup" fill="#4C75A3">
            <path d="M55,110 C85.3756612,110 110,85.3756612 110,55 C110,24.6243388 85.3756612,0 55,0 C24.6243388,0 0,24.6243388 0,55 C0,85.3756612 24.6243388,110 55,110 Z M60.174,58.908 C58.635,58.012 56.496,58.012 54.758,58.012 L49.051,58.012 L49.051,69.772 L54.289,69.772 C56.228,69.772 58.701,69.911 60.373,68.737 C61.908,67.704 62.777,65.676 62.777,63.745 C62.777,61.951 61.709,59.805 60.174,58.908 L60.174,58.908 Z M58.021,48.865 C59.291,47.898 59.957,46.174 59.957,44.586 C59.957,42.861 59.156,41.205 57.687,40.309 C56.15,39.413 53.341,39.62 51.537,39.62 L49.051,39.62 L49.051,49.97 L52.34,49.97 C54.211,49.969 56.418,50.107 58.021,48.865 L58.021,48.865 Z M57.604,78.535 L37.992,78.535 L37.992,31.201 L59.42,31.201 C65.627,31.201 71.354,35.152 71.354,42.121 C71.354,47.502 68.35,51.187 64.518,52.332 L64.518,52.471 C70.2,53.645 74.258,56.731 74.258,64.176 C74.258,71.066 69.566,78.535 57.604,78.535 L57.604,78.535 Z" id="Shape" sketch:type="MSShapeGroup"></path>
        </g>
    </g>
</svg>