<?xml version="1.0" encoding="utf-8"?><!DOCTYPE svg PUBLIC "-//W3C//DTD SVG 1.0//EN" "http://www.w3.org/TR/2001/REC-SVG-20010904/DTD/svg10.dtd"><svg version="1.0" xmlns="http://www.w3.org/2000/svg" xmlns:xlink="http://www.w3.org/1999/xlink" x="0px" y="0px" viewBox="0 0 45.892 100" enable-background="new 0 0 45.892 100" xml:space="preserve"><rect y="22.815" width="10.937" height="11.408"></rect><rect y="66.719" width="10.937" height="11.407"></rect><path d="M21.612,100c5.547-10.815,9.123-18.699,10.727-23.653c2.442-7.5,3.664-16.291,3.664-26.373s-1.413-19.309-4.24-27.682
	C30.019,17.129,26.583,9.699,21.455,0h6.331c5.374,8.583,8.626,13.876,9.76,15.882c1.134,2.006,2.363,4.771,3.689,8.293
	c1.674,4.361,2.87,8.669,3.585,12.925s1.072,8.355,1.072,12.297c0,10.327-1.639,19.536-4.919,27.629
	c-2.059,5.198-6.332,12.855-12.82,22.973H21.612z"></path></svg>